<svg xmlns="http://www.w3.org/2000/svg" xmlns:xlink="http://www.w3.org/1999/xlink" width="446" zoomAndPan="magnify" viewBox="0 0 334.5 233.999995" height="312" preserveAspectRatio="xMidYMid meet" version="1.0"><defs><g/><clipPath id="9c540f7e86"><path d="M 209 84 L 258 84 L 258 136 L 209 136 Z M 209 84 " clip-rule="nonzero"/></clipPath><clipPath id="93778983f4"><path d="M 204.96875 89.238281 L 234.246094 75.710938 L 259.726562 130.859375 L 230.449219 144.386719 Z M 204.96875 89.238281 " clip-rule="nonzero"/></clipPath><clipPath id="7b667be235"><path d="M 204.96875 89.238281 L 234.246094 75.710938 L 259.726562 130.859375 L 230.449219 144.386719 Z M 204.96875 89.238281 " clip-rule="nonzero"/></clipPath></defs><g clip-path="url(#9c540f7e86)"><g clip-path="url(#93778983f4)"><g clip-path="url(#7b667be235)"><path fill="#ffffff" d="M 248.011719 134.5 C 246.890625 134.023438 245.804688 133.628906 245.597656 133.621094 C 245.386719 133.613281 245.152344 133.5625 245.078125 133.511719 C 245 133.457031 244.832031 133.460938 244.703125 133.523438 C 244.507812 133.613281 244.433594 133.574219 244.242188 133.296875 C 244.117188 133.109375 243.816406 132.699219 243.578125 132.378906 C 242.9375 131.53125 242.738281 131.039062 242.867188 130.652344 C 242.957031 130.386719 242.941406 130.304688 242.769531 130.164062 C 242.65625 130.070312 242.417969 129.738281 242.238281 129.417969 C 241.699219 128.457031 241.015625 128.019531 240.410156 128.253906 C 239.777344 128.5 239.789062 128.554688 240.789062 129.898438 C 241.246094 130.511719 241.75 131.191406 241.90625 131.402344 C 242.0625 131.613281 242.25 131.816406 242.328125 131.851562 C 242.980469 132.164062 243.328125 133.570312 242.816406 133.808594 C 242.296875 134.046875 241.902344 133.792969 239.976562 131.953125 C 238.550781 130.597656 237.9375 130.035156 237.804688 129.964844 C 237.742188 129.929688 237.507812 129.695312 237.285156 129.441406 C 235.949219 127.90625 235.578125 127.734375 234.144531 128.011719 C 233.035156 128.226562 232.503906 128.042969 232.269531 127.367188 C 232.101562 126.882812 232.058594 126.84375 231.523438 126.621094 C 231 126.40625 230.9375 126.347656 230.691406 125.808594 C 230.460938 125.3125 230.363281 125.203125 230 125.039062 C 229.15625 124.65625 229.046875 124.554688 228.714844 123.832031 C 228.453125 123.265625 228.347656 123.128906 228.121094 123.058594 C 227.34375 122.820312 226.925781 121.367188 227.460938 120.75 C 227.65625 120.523438 227.632812 120.25 227.410156 120.226562 C 227.125 120.191406 226.746094 119.402344 226.828125 119.019531 C 226.941406 118.480469 226.964844 118.507812 224.609375 116.492188 C 221.890625 114.171875 220.339844 113 219.339844 112.503906 C 218.90625 112.289062 218.46875 112.046875 218.363281 111.964844 C 218.257812 111.886719 218.011719 111.746094 217.816406 111.652344 C 217.292969 111.40625 217.207031 111.109375 217.492188 110.539062 L 217.734375 110.050781 L 217.234375 109.835938 C 216.558594 109.550781 216.347656 109.375 215.136719 108.101562 C 214.570312 107.503906 213.898438 106.804688 213.648438 106.550781 C 212.695312 105.582031 209.976562 100.011719 209.578125 98.222656 C 209.496094 97.835938 209.527344 97.566406 209.714844 97.101562 C 210.390625 95.421875 210.46875 95.136719 210.386719 94.683594 C 210.261719 93.996094 210.367188 93.515625 210.734375 93.070312 C 211.964844 91.582031 212.589844 90.851562 213.136719 90.265625 C 213.941406 89.398438 214.011719 89.203125 213.734375 88.597656 C 213.5 88.097656 213.519531 87.9375 213.816406 87.917969 C 214.03125 87.902344 214.824219 88.660156 215.007812 89.050781 C 215.304688 89.699219 215.582031 89.699219 215.71875 89.050781 C 215.792969 88.683594 215.761719 88.539062 215.453125 87.921875 C 214.683594 86.386719 214.617188 84.777344 215.308594 84.460938 C 215.949219 84.164062 216.261719 84.347656 216.015625 84.878906 C 215.933594 85.058594 215.941406 85.203125 216.046875 85.328125 C 216.132812 85.429688 216.226562 85.566406 216.257812 85.632812 C 216.289062 85.699219 216.378906 85.722656 216.457031 85.6875 C 217.230469 85.332031 218.898438 89.0625 218.53125 90.320312 C 218.339844 90.976562 218.410156 91.445312 218.792969 92.027344 C 218.929688 92.238281 219.15625 92.585938 219.292969 92.800781 C 219.496094 93.121094 219.566406 93.164062 219.6875 93.050781 C 220.496094 92.316406 221.800781 95.140625 221.339844 96.628906 C 221.292969 96.78125 221.316406 97.1875 221.394531 97.535156 C 221.546875 98.226562 221.445312 99.050781 221.09375 100 C 220.910156 100.488281 220.890625 100.746094 221 101.308594 C 221.269531 102.71875 220.953125 104.492188 220.386719 104.753906 C 219.898438 104.980469 219.871094 105.300781 220.320312 105.535156 C 220.609375 105.691406 220.699219 106.101562 220.542969 106.574219 L 220.421875 106.933594 L 220.960938 106.757812 C 221.742188 106.5 221.839844 106.566406 222.503906 107.796875 C 223.929688 110.429688 224.613281 111.308594 228.785156 115.890625 C 229.261719 116.410156 229.703125 116.867188 229.765625 116.902344 C 229.828125 116.9375 230.003906 117.101562 230.152344 117.261719 L 230.425781 117.558594 L 231.5 117.265625 C 234.058594 116.574219 235.121094 116.6875 237.835938 117.925781 C 238.546875 118.25 239.738281 119.246094 241.226562 120.757812 C 242.425781 121.976562 242.550781 122.085938 243.140625 122.425781 C 244.460938 123.195312 244.871094 123.222656 244.796875 122.542969 C 244.714844 121.800781 246.140625 121.90625 247.152344 122.71875 C 247.945312 123.355469 249.261719 123.988281 249.761719 123.976562 C 249.941406 123.96875 250.375 124.070312 250.730469 124.199219 C 251.253906 124.394531 251.53125 124.414062 252.285156 124.3125 C 253.191406 124.1875 253.914062 124.261719 254.464844 124.527344 C 254.707031 124.648438 256.082031 124.726562 256.636719 124.652344 C 256.773438 124.636719 256.875 124.726562 256.988281 124.96875 C 257.167969 125.359375 256.824219 125.621094 256.203125 125.570312 C 256.035156 125.554688 255.777344 125.597656 255.628906 125.664062 C 255.484375 125.726562 255.234375 125.726562 255.070312 125.660156 C 254.910156 125.597656 254.761719 125.578125 254.746094 125.621094 C 254.691406 125.769531 253.777344 125.933594 253.339844 125.871094 C 252.726562 125.785156 252.722656 125.675781 253.324219 125.667969 C 253.933594 125.660156 254.113281 125.417969 253.597656 125.300781 C 252.207031 124.976562 251.738281 124.984375 251.78125 125.324219 C 251.835938 125.765625 251.421875 125.695312 251.203125 125.230469 C 251.144531 125.097656 251.050781 125.078125 250.875 125.15625 C 250.6875 125.246094 250.609375 125.21875 250.53125 125.046875 C 250.308594 124.570312 249.808594 124.632812 249.917969 125.125 C 250 125.503906 249.867188 126.121094 249.707031 126.101562 C 249.535156 126.082031 249.324219 125.550781 249.441406 125.4375 C 249.5 125.378906 249.488281 125.316406 249.414062 125.289062 C 249.34375 125.265625 249.296875 125.304688 249.300781 125.386719 C 249.335938 125.785156 249.027344 125.632812 248.800781 125.136719 C 248.429688 124.332031 247.9375 123.867188 247.707031 124.101562 C 247.613281 124.195312 247.640625 124.324219 247.816406 124.613281 C 247.972656 124.875 248.027344 125.082031 247.984375 125.261719 C 247.925781 125.515625 247.917969 125.515625 247.785156 125.230469 C 247.707031 125.070312 247.671875 124.859375 247.707031 124.765625 C 247.75 124.660156 247.734375 124.613281 247.667969 124.644531 C 247.613281 124.671875 247.515625 125.003906 247.457031 125.386719 C 247.363281 125.984375 247.054688 126.464844 246.933594 126.207031 C 246.886719 126.105469 247.050781 125.347656 247.160156 125.144531 C 247.296875 124.90625 247.140625 123.457031 246.960938 123.28125 C 246.785156 123.113281 246.617188 123.203125 246.648438 123.445312 C 246.710938 123.910156 246.664062 124.683594 246.578125 124.597656 C 246.527344 124.546875 246.492188 124.339844 246.503906 124.140625 C 246.523438 123.738281 246.335938 123.253906 246.132812 123.179688 C 246.058594 123.148438 245.925781 123.003906 245.835938 122.851562 C 245.605469 122.46875 245.324219 122.570312 245.308594 123.039062 C 245.296875 123.398438 245.3125 123.417969 245.621094 123.519531 C 246.085938 123.667969 245.777344 125.316406 244.976562 126.945312 C 244.871094 127.152344 244.597656 127.808594 244.359375 128.402344 C 244.125 128.996094 243.894531 129.484375 243.847656 129.492188 C 243.671875 129.523438 243.570312 130.136719 243.6875 130.472656 C 243.808594 130.8125 243.800781 130.828125 243.433594 130.960938 C 243.113281 131.078125 243.066406 131.128906 243.140625 131.285156 C 243.28125 131.59375 243.734375 132.019531 244.027344 132.121094 C 244.238281 132.195312 244.28125 132.246094 244.210938 132.351562 C 244.039062 132.605469 244.949219 133.195312 245.527344 133.203125 C 245.800781 133.207031 246.199219 133.269531 246.414062 133.339844 C 246.628906 133.410156 246.917969 133.4375 247.054688 133.394531 C 247.195312 133.351562 247.355469 133.367188 247.414062 133.429688 C 247.492188 133.515625 247.445312 133.5625 247.234375 133.617188 L 246.949219 133.6875 L 247.296875 133.835938 C 250.09375 135.015625 250.195312 135.0625 250.121094 135.214844 C 250.0625 135.328125 249.519531 135.144531 248.011719 134.5 Z M 242.699219 132.976562 C 242.691406 132.878906 242.59375 132.691406 242.472656 132.558594 L 242.261719 132.320312 L 242.085938 132.671875 C 241.933594 132.976562 241.9375 133.042969 242.117188 133.175781 C 242.355469 133.359375 242.714844 133.234375 242.699219 132.976562 Z M 241.726562 132.316406 C 241.679688 132.210938 241.683594 131.996094 241.742188 131.839844 C 241.886719 131.453125 241.859375 131.433594 241.421875 131.636719 C 240.910156 131.875 240.757812 131.746094 241.101562 131.371094 C 241.4375 131.007812 241.402344 130.824219 241.027344 130.996094 C 240.878906 131.0625 240.679688 131.109375 240.585938 131.09375 C 240.34375 131.0625 240.34375 130.726562 240.582031 130.617188 C 240.714844 130.554688 240.75 130.460938 240.691406 130.332031 C 240.59375 130.117188 240.476562 130.128906 240.390625 130.363281 C 240.265625 130.699219 239.851562 130.6875 239.734375 130.351562 C 239.660156 130.136719 239.566406 130.039062 239.449219 130.046875 C 239.34375 130.054688 239.265625 129.984375 239.257812 129.882812 C 239.246094 129.707031 238.902344 129.65625 238.839844 129.824219 C 238.804688 129.917969 239.9375 131.191406 240.480469 131.660156 C 240.671875 131.832031 240.992188 132.117188 241.191406 132.300781 C 241.566406 132.644531 241.882812 132.652344 241.726562 132.316406 Z M 244.214844 127.875 C 244.511719 127.085938 244.855469 126.289062 244.976562 126.101562 C 245.148438 125.832031 245.164062 125.699219 245.046875 125.441406 C 244.925781 125.1875 244.9375 125.09375 245.089844 124.992188 C 245.472656 124.742188 245.390625 124.433594 244.90625 124.320312 C 244.535156 124.234375 244.457031 124.171875 244.402344 123.914062 C 244.300781 123.460938 244.070312 123.257812 243.792969 123.386719 C 243.660156 123.445312 243.574219 123.539062 243.597656 123.59375 C 243.648438 123.695312 243.097656 125.230469 242.996094 125.277344 C 242.964844 125.292969 242.96875 125.199219 243.007812 125.066406 C 243.175781 124.5 243.125 124.242188 242.882812 124.4375 C 242.707031 124.578125 242.660156 124.578125 242.648438 124.441406 C 242.644531 124.347656 242.667969 124.257812 242.707031 124.238281 C 242.78125 124.207031 242.742188 123.527344 242.660156 123.34375 C 242.507812 123.019531 241.730469 123.621094 241.726562 124.070312 C 241.714844 124.644531 241.605469 124.714844 241.21875 124.398438 C 240.800781 124.050781 240.800781 124.0625 241.183594 123.886719 C 241.632812 123.679688 241.578125 123.324219 241.074219 123.164062 C 240.875 123.097656 240.679688 123.066406 240.632812 123.085938 C 240.585938 123.105469 240.527344 123.078125 240.5 123.019531 C 240.472656 122.960938 240.550781 122.90625 240.675781 122.890625 C 241.363281 122.800781 241.367188 122.167969 240.679688 122.175781 C 240.070312 122.179688 239.917969 122.074219 240.375 121.953125 C 240.574219 121.902344 240.777344 121.796875 240.832031 121.714844 C 240.957031 121.515625 240.710938 121.289062 240.484375 121.394531 C 240.179688 121.535156 239.765625 121.410156 239.941406 121.230469 C 240.128906 121.035156 239.96875 120.730469 239.667969 120.714844 C 239.46875 120.703125 239.40625 120.632812 239.335938 120.355469 C 239.261719 120.070312 239.195312 120.003906 238.945312 119.96875 C 238.707031 119.933594 238.617188 119.851562 238.523438 119.585938 C 238.4375 119.332031 238.285156 119.179688 237.9375 118.992188 C 237.679688 118.855469 237.300781 118.617188 237.097656 118.46875 C 236.894531 118.316406 236.558594 118.175781 236.347656 118.152344 C 236.140625 118.128906 235.863281 118.046875 235.734375 117.972656 C 235.445312 117.804688 234.558594 117.796875 234.214844 117.957031 C 234.078125 118.019531 233.949219 118.035156 233.925781 117.992188 C 233.890625 117.910156 232.011719 118.269531 231.691406 118.417969 C 231.597656 118.460938 231.207031 118.515625 230.820312 118.535156 C 229.789062 118.589844 229.0625 118.839844 228.914062 119.1875 C 228.851562 119.339844 228.65625 119.582031 228.488281 119.726562 C 227.820312 120.296875 229.203125 120.59375 230.042969 120.058594 C 230.398438 119.832031 230.597656 119.792969 231.398438 119.792969 C 233.300781 119.789062 233.363281 119.785156 233.546875 119.542969 C 233.640625 119.421875 233.699219 119.28125 233.675781 119.238281 C 233.65625 119.191406 233.65625 119.078125 233.679688 118.992188 C 233.703125 118.902344 233.757812 118.679688 233.796875 118.5 C 233.839844 118.320312 233.921875 118.191406 233.980469 118.210938 C 234.039062 118.234375 234.035156 118.402344 233.976562 118.585938 C 233.777344 119.167969 233.953125 119.644531 234.683594 120.515625 C 235.042969 120.941406 235.367188 121.394531 235.414062 121.523438 C 235.457031 121.660156 235.542969 121.738281 235.617188 121.703125 C 235.773438 121.636719 236.035156 121.796875 236.144531 122.027344 C 236.335938 122.433594 237.71875 122.941406 238.539062 122.90625 C 238.757812 122.894531 238.808594 122.921875 238.710938 123 C 238.636719 123.058594 238.421875 123.097656 238.230469 123.089844 C 238.039062 123.082031 237.871094 123.101562 237.859375 123.136719 C 237.800781 123.289062 238.300781 123.390625 239.035156 123.378906 C 239.851562 123.367188 240.074219 123.539062 239.449219 123.699219 C 239.164062 123.769531 239.09375 123.832031 239.082031 124.03125 C 239.074219 124.167969 238.984375 124.316406 238.882812 124.363281 C 238.664062 124.464844 238.609375 124.675781 238.792969 124.695312 C 239.007812 124.722656 239.007812 124.871094 238.796875 125.015625 C 238.683594 125.089844 238.628906 125.195312 238.671875 125.257812 C 238.714844 125.316406 238.652344 125.410156 238.523438 125.46875 C 238.15625 125.636719 238.195312 125.753906 238.667969 125.890625 L 239.113281 126.019531 L 238.792969 126.089844 C 238.613281 126.128906 238.304688 126.132812 238.105469 126.097656 C 237.835938 126.050781 237.726562 126.074219 237.683594 126.191406 C 237.613281 126.382812 237.742188 126.441406 238.253906 126.464844 C 238.488281 126.472656 238.558594 126.507812 238.445312 126.558594 C 238.199219 126.675781 238.351562 126.898438 238.714844 126.953125 C 239.109375 127.007812 239.164062 127.113281 238.921875 127.328125 C 238.738281 127.488281 238.738281 127.496094 238.972656 127.523438 C 239.105469 127.539062 239.363281 127.601562 239.546875 127.664062 C 240.304688 127.921875 240.980469 127.210938 240.988281 126.140625 C 240.996094 125.542969 241.253906 125.335938 241.496094 125.738281 C 241.59375 125.898438 241.570312 126.210938 241.421875 126.792969 C 241.167969 127.773438 241.144531 127.710938 241.988281 128.40625 C 242.742188 129.035156 242.804688 129.121094 242.589844 129.21875 C 242.371094 129.320312 242.570312 129.496094 242.917969 129.507812 C 243.519531 129.527344 243.648438 129.367188 244.214844 127.871094 Z M 241.800781 126.6875 C 241.691406 126.648438 241.886719 126.269531 242.058594 126.183594 C 242.128906 126.148438 242.839844 125.378906 242.832031 125.445312 C 242.808594 125.628906 241.902344 126.726562 241.800781 126.6875 Z M 238.769531 129.109375 C 238.777344 129.039062 238.675781 129.035156 238.535156 129.097656 C 238.347656 129.183594 238.308594 129.265625 238.378906 129.410156 C 238.46875 129.613281 238.730469 129.414062 238.769531 129.109375 Z M 235.054688 126.21875 C 235.035156 126.085938 234.960938 125.855469 234.894531 125.707031 C 234.828125 125.5625 234.816406 125.421875 234.867188 125.398438 C 234.921875 125.371094 234.988281 125.394531 235.011719 125.449219 C 235.078125 125.597656 235.625 125.769531 235.695312 125.664062 C 236.203125 124.902344 234.601562 125.285156 233.363281 126.222656 C 232.464844 126.902344 232.691406 127.222656 233.730469 126.746094 C 234.191406 126.53125 234.453125 126.460938 234.585938 126.519531 C 234.871094 126.644531 235.105469 126.496094 235.054688 126.21875 Z M 233.386719 124.789062 L 233.617188 124.441406 L 233.289062 124.214844 C 232.695312 123.808594 230.847656 125.097656 231.339844 125.578125 C 231.410156 125.644531 231.480469 125.726562 231.496094 125.765625 C 231.582031 125.945312 233.160156 125.132812 233.386719 124.789062 Z M 234.515625 124.035156 C 234.976562 123.824219 234.757812 123.46875 234.265625 123.621094 C 233.597656 123.824219 233.566406 123.957031 234.101562 124.285156 C 234.492188 124.527344 234.527344 124.53125 234.46875 124.320312 C 234.429688 124.195312 234.453125 124.0625 234.515625 124.035156 Z M 232.46875 123.507812 C 232.5 123.464844 232.417969 123.269531 232.289062 123.070312 C 232.039062 122.671875 232.132812 122.503906 232.464844 122.753906 C 232.695312 122.925781 232.957031 122.835938 232.941406 122.59375 C 232.933594 122.496094 233.050781 122.367188 233.210938 122.292969 C 233.425781 122.191406 233.472656 122.117188 233.40625 121.972656 C 233.25 121.640625 232.882812 121.703125 232.199219 122.183594 C 231.710938 122.523438 231.542969 122.601562 231.382812 122.558594 C 231.273438 122.527344 231.148438 122.558594 231.105469 122.621094 C 231.0625 122.683594 230.714844 122.875 230.332031 123.046875 C 229.554688 123.398438 229.417969 123.570312 229.605469 123.96875 C 229.742188 124.269531 230.046875 124.339844 230.4375 124.160156 C 230.59375 124.089844 230.722656 124.109375 230.8125 124.214844 C 230.945312 124.371094 232.273438 123.804688 232.46875 123.507812 Z M 231.425781 121.289062 C 231.660156 120.792969 231.582031 120.628906 231.164062 120.730469 C 230.527344 120.882812 230.265625 121.050781 230.410156 121.210938 C 231.035156 121.886719 231.140625 121.894531 231.425781 121.289062 Z M 230.195312 121.835938 C 230.257812 121.320312 230.007812 121.136719 229.203125 121.105469 C 228.039062 121.066406 227.738281 121.621094 228.613281 122.195312 C 228.910156 122.390625 230.164062 122.105469 230.195312 121.835938 Z M 234.867188 117.371094 C 234.703125 117.210938 234.019531 117.226562 233.648438 117.398438 C 233.382812 117.519531 233.363281 117.554688 233.523438 117.628906 C 233.628906 117.679688 233.828125 117.667969 233.96875 117.605469 C 234.109375 117.542969 234.363281 117.5 234.535156 117.515625 C 234.925781 117.546875 235.011719 117.511719 234.867188 117.371094 Z M 228.351562 119.082031 C 228.242188 118.84375 227.839844 118.941406 227.597656 119.257812 C 227.332031 119.609375 227.59375 119.742188 228.050781 119.492188 C 228.367188 119.316406 228.421875 119.238281 228.351562 119.082031 Z M 229.714844 117.820312 C 229.671875 117.726562 229.3125 117.742188 228.578125 117.867188 L 228.101562 117.949219 L 227.925781 117.480469 C 227.757812 117.035156 227.734375 117.019531 227.46875 117.105469 C 227.144531 117.214844 227.101562 117.175781 227.207031 116.847656 C 227.273438 116.636719 227.257812 116.605469 227.058594 116.535156 C 226.9375 116.488281 226.796875 116.363281 226.746094 116.253906 C 226.695312 116.144531 226.613281 116.074219 226.558594 116.097656 C 226.503906 116.121094 226.410156 116.035156 226.347656 115.902344 C 226.285156 115.765625 226.128906 115.648438 225.988281 115.628906 C 225.683594 115.59375 225.621094 115.488281 225.765625 115.234375 C 225.898438 114.996094 225.671875 114.75 225.371094 114.804688 C 225.140625 114.84375 224.984375 114.660156 225.101562 114.484375 C 225.222656 114.304688 225.046875 114.078125 224.816406 114.121094 C 224.582031 114.164062 224.484375 114.0625 224.597656 113.894531 C 224.726562 113.695312 224.328125 113 224.152344 113.125 C 224.066406 113.1875 224.027344 113.335938 224.0625 113.457031 C 224.25 114.089844 223.457031 113.929688 222.863281 113.21875 C 222.542969 112.832031 221.761719 112.449219 221.523438 112.558594 C 221.445312 112.59375 221.429688 112.667969 221.488281 112.722656 C 221.542969 112.777344 221.777344 113.023438 222.003906 113.273438 C 222.234375 113.523438 222.53125 113.808594 222.664062 113.910156 C 222.796875 114.007812 223.089844 114.230469 223.3125 114.398438 C 223.535156 114.570312 223.808594 114.699219 223.921875 114.683594 C 224.152344 114.65625 224.238281 114.769531 224.117188 114.949219 C 224.0625 115.03125 224.15625 115.101562 224.398438 115.160156 C 224.640625 115.21875 224.878906 115.394531 225.132812 115.710938 C 225.464844 116.121094 226.121094 116.796875 227.132812 117.769531 C 227.3125 117.941406 227.535156 118.1875 227.628906 118.3125 C 227.886719 118.65625 229.882812 118.1875 229.714844 117.820312 Z M 223.832031 112.714844 C 223.957031 112.554688 224.023438 112.414062 223.984375 112.398438 C 223.867188 112.359375 223.328125 112.929688 223.425781 112.992188 C 223.539062 113.070312 223.570312 113.046875 223.832031 112.714844 Z M 223.359375 112.238281 C 223.402344 112.066406 223.367188 112.058594 223.105469 112.179688 C 222.921875 112.265625 222.75 112.273438 222.675781 112.203125 C 222.53125 112.0625 222.257812 112.15625 222.332031 112.320312 C 222.507812 112.695312 223.25 112.636719 223.359375 112.238281 Z M 220.726562 112.429688 C 220.59375 112.148438 219.898438 111.550781 219.773438 111.609375 C 219.574219 111.699219 219.660156 111.902344 220.007812 112.171875 C 220.207031 112.320312 220.429688 112.511719 220.5 112.589844 C 220.683594 112.800781 220.847656 112.683594 220.726562 112.429688 Z M 222.15625 111.6875 C 222.042969 111.4375 221.832031 111.421875 221.722656 111.648438 C 221.585938 111.9375 221.730469 112.109375 222 111.984375 C 222.175781 111.90625 222.21875 111.820312 222.15625 111.6875 Z M 221.753906 111.222656 C 221.644531 111.050781 221.351562 111.09375 221.132812 111.316406 C 220.800781 111.65625 221.054688 111.816406 221.472656 111.535156 C 221.65625 111.410156 221.78125 111.269531 221.753906 111.222656 Z M 221.242188 110.777344 C 221.308594 110.648438 221.289062 110.605469 221.132812 110.550781 C 220.867188 110.453125 220.394531 110.933594 220.507812 111.183594 C 220.601562 111.378906 221.074219 111.117188 221.242188 110.777344 Z M 220.363281 110.75 C 220.871094 110.375 221.050781 110.039062 220.792969 109.945312 C 220.667969 109.898438 220.503906 110 220.109375 110.367188 C 219.363281 111.0625 219.246094 110.859375 219.914062 110.03125 C 220.210938 109.664062 220.320312 109.589844 220.746094 109.496094 C 221.175781 109.398438 221.25 109.347656 221.34375 109.097656 L 221.449219 108.808594 L 221.117188 109.011719 C 220.886719 109.152344 220.75 109.179688 220.667969 109.101562 C 220.578125 109.011719 220.441406 109.054688 220.023438 109.3125 C 219.734375 109.488281 219.429688 109.675781 219.347656 109.730469 C 219.148438 109.851562 218.871094 110.65625 218.898438 111.039062 C 218.941406 111.691406 219.15625 111.648438 220.363281 110.75 Z M 221.125 108.378906 C 221.050781 108.351562 220.789062 108.398438 220.546875 108.488281 L 220.101562 108.644531 L 220.515625 108.597656 C 220.742188 108.574219 220.972656 108.570312 221.03125 108.589844 C 221.085938 108.609375 221.160156 108.582031 221.199219 108.527344 C 221.238281 108.464844 221.210938 108.410156 221.125 108.378906 Z M 219.328125 108.984375 C 219.726562 108.597656 220.257812 108.152344 220.511719 107.992188 C 220.964844 107.703125 220.964844 107.699219 220.640625 107.691406 C 220.183594 107.683594 218.5 109.164062 218.441406 109.628906 C 218.414062 109.835938 218.53125 109.753906 219.328125 108.984375 Z M 217.734375 109.011719 C 217.6875 108.910156 217.558594 108.835938 217.449219 108.84375 C 217.339844 108.855469 217.089844 108.835938 216.890625 108.800781 C 216.417969 108.71875 216.394531 108.84375 216.816406 109.207031 C 217.351562 109.671875 217.976562 109.539062 217.734375 109.011719 Z M 218.832031 108.554688 C 219.082031 108.195312 219.007812 107.910156 218.722656 108.148438 C 218.617188 108.234375 218.480469 108.332031 218.417969 108.359375 C 218.289062 108.421875 218.292969 108.75 218.429688 108.835938 C 218.558594 108.921875 218.597656 108.898438 218.832031 108.554688 Z M 219.953125 106.769531 C 220.046875 106.359375 220.027344 106.261719 219.757812 105.835938 C 219.089844 104.78125 219.09375 104.832031 219.625 104.515625 C 219.886719 104.363281 220.15625 104.136719 220.222656 104.015625 C 220.539062 103.421875 220.640625 103.046875 220.574219 102.746094 C 220.53125 102.5625 220.519531 102.335938 220.542969 102.242188 C 220.636719 101.875 220.3125 101.964844 220.085938 102.367188 C 219.671875 103.117188 219.292969 103.496094 218.679688 103.78125 C 217.789062 104.195312 217.429688 105.449219 218.011719 106.121094 C 218.257812 106.402344 218.507812 106.390625 218.507812 106.089844 C 218.511719 105.582031 218.535156 105.464844 218.628906 105.441406 C 218.730469 105.414062 218.890625 105.765625 218.976562 106.199219 C 219.011719 106.382812 218.953125 106.472656 218.730469 106.574219 C 218.398438 106.730469 218.425781 106.867188 218.875 107.277344 C 219.304688 107.667969 219.804688 107.433594 219.957031 106.769531 Z M 218.53125 107.667969 C 218.476562 107.554688 217.777344 106.929688 217.53125 106.777344 C 216.882812 106.378906 216.582031 105.984375 216.667969 105.640625 C 216.769531 105.230469 216.753906 104.589844 216.640625 104.34375 C 216.527344 104.097656 216.570312 103.039062 216.734375 102.007812 C 216.804688 101.570312 216.84375 100.769531 216.828125 100.230469 C 216.792969 99.199219 216.785156 99.175781 215.9375 97.835938 L 215.707031 97.472656 L 216.082031 97.789062 C 216.390625 98.050781 216.488281 98.078125 216.644531 97.953125 C 216.824219 97.804688 216.828125 97.808594 216.8125 98.179688 C 216.789062 98.636719 216.902344 98.605469 217.304688 98.03125 C 217.46875 97.796875 217.777344 97.488281 217.988281 97.347656 C 219.308594 96.464844 219.613281 95.734375 218.878906 95.21875 C 218.640625 95.050781 218.382812 94.839844 218.304688 94.746094 C 218.226562 94.652344 218.03125 94.414062 217.867188 94.214844 C 217.417969 93.667969 217.214844 94.199219 217.464844 95.257812 C 217.507812 95.433594 217.511719 95.800781 217.472656 96.074219 C 217.40625 96.539062 217.398438 96.550781 217.34375 96.246094 C 217.3125 96.070312 217.195312 95.726562 217.089844 95.488281 C 216.933594 95.148438 216.925781 95.027344 217.054688 94.9375 C 217.308594 94.753906 217.210938 94.335938 216.597656 93.007812 C 216 91.714844 215.867188 91.566406 215.878906 92.191406 C 215.882812 92.523438 215.863281 92.550781 215.683594 92.449219 C 215.453125 92.320312 214.996094 92.800781 214.820312 93.355469 C 214.632812 93.949219 214.40625 93.714844 214.480469 92.996094 C 214.523438 92.597656 214.546875 92.566406 214.726562 92.664062 C 214.910156 92.765625 214.9375 92.75 215.117188 92.402344 C 215.507812 91.632812 215.214844 91.304688 214.640625 91.859375 C 214.441406 92.050781 214.183594 92.25 214.0625 92.304688 L 213.847656 92.40625 L 213.925781 91.945312 C 213.96875 91.691406 213.984375 91.445312 213.964844 91.398438 C 213.941406 91.351562 213.953125 91.085938 213.992188 90.8125 L 214.058594 90.316406 L 213.832031 90.421875 C 213.488281 90.578125 213.113281 91.496094 213.152344 92.082031 C 213.191406 92.628906 213.382812 92.921875 213.574219 92.726562 C 213.808594 92.488281 213.804688 92.855469 213.566406 93.476562 C 213.417969 93.871094 213.367188 94.191406 213.433594 94.332031 C 213.554688 94.601562 213.546875 95.03125 213.414062 95.226562 C 213.285156 95.410156 213.710938 96.359375 213.855469 96.210938 C 213.914062 96.15625 213.980469 95.847656 214.003906 95.527344 C 214.058594 94.890625 214.25 94.316406 214.34375 94.519531 C 214.375 94.585938 214.371094 94.792969 214.335938 94.980469 C 214.191406 95.742188 214.285156 96.210938 214.832031 97.464844 C 215.414062 98.800781 215.449219 99.050781 215.179688 100.074219 C 215.101562 100.375 215.0625 100.671875 215.089844 100.730469 C 215.117188 100.789062 215.0625 100.84375 214.96875 100.847656 C 214.457031 100.882812 213.6875 102.210938 213.636719 103.136719 C 213.601562 103.859375 213.71875 103.988281 213.96875 103.5 C 214.175781 103.09375 214.304688 103.1875 214.277344 103.726562 C 214.21875 104.859375 215.285156 106.441406 216.199219 106.585938 C 216.570312 106.644531 216.925781 106.828125 217.492188 107.253906 C 218.117188 107.726562 218.65625 107.941406 218.53125 107.667969 Z M 215.414062 97.003906 C 215.285156 96.671875 215.242188 96.300781 215.285156 95.949219 C 215.488281 94.328125 215.539062 94.082031 215.644531 94.148438 C 215.773438 94.234375 215.773438 94.246094 215.597656 95.375 C 215.523438 95.839844 215.496094 96.511719 215.535156 96.871094 L 215.605469 97.519531 Z M 216.109375 93.480469 C 216.03125 93.316406 215.878906 93.125 215.765625 93.050781 C 215.53125 92.898438 215.550781 92.734375 215.808594 92.714844 C 216.011719 92.703125 216.433594 93.496094 216.316406 93.671875 C 216.273438 93.734375 216.1875 93.652344 216.109375 93.480469 Z M 214.367188 106.164062 C 214.339844 106.003906 214.148438 105.652344 213.949219 105.382812 C 212.933594 104.011719 212.882812 103.136719 213.746094 101.75 C 213.980469 101.367188 214.152344 101 214.121094 100.933594 C 214.089844 100.867188 214.074219 100.660156 214.082031 100.476562 C 214.09375 100.234375 214.042969 100.085938 213.894531 99.941406 C 213.78125 99.832031 213.652344 99.667969 213.613281 99.574219 C 213.457031 99.222656 214 99.652344 214.167969 100.019531 C 214.699219 101.160156 215.101562 99.492188 214.605469 98.214844 C 214.175781 97.113281 213.867188 96.917969 214.144531 97.925781 C 214.289062 98.4375 214.332031 98.816406 214.265625 98.96875 C 214.167969 99.195312 214.160156 99.183594 214.0625 98.625 C 213.796875 97.082031 212.792969 96.066406 212.425781 96.976562 C 212.289062 97.316406 211.761719 97.617188 211.664062 97.410156 C 211.617188 97.304688 211.8125 96.933594 212.054688 96.667969 C 212.238281 96.464844 212.238281 96.398438 212.058594 96.132812 C 211.886719 95.875 211.882812 95.804688 212.035156 95.679688 C 212.132812 95.597656 212.191406 95.484375 212.164062 95.425781 C 212.105469 95.292969 211.839844 95.40625 211.820312 95.574219 C 211.796875 95.773438 211.636719 95.796875 211.265625 95.644531 C 210.917969 95.503906 210.535156 95.730469 210.664062 96.003906 C 210.6875 96.0625 210.546875 96.5 210.351562 96.976562 C 209.789062 98.332031 210.546875 100.523438 211.253906 99.589844 C 211.40625 99.386719 211.425781 99.386719 211.429688 99.582031 C 211.433594 99.84375 211.558594 100.117188 211.792969 100.367188 C 211.941406 100.527344 211.929688 100.566406 211.710938 100.667969 C 211.164062 100.921875 211.648438 103.21875 212.265625 103.292969 C 212.394531 103.308594 212.589844 102.730469 212.507812 102.558594 C 212.421875 102.371094 212.464844 101.730469 212.589844 101.257812 C 212.839844 100.332031 212.972656 99.945312 213.035156 99.96875 C 213.164062 100.015625 213.140625 100.589844 212.984375 101.101562 C 212.484375 102.738281 212.785156 104.617188 213.769531 106.007812 C 214.195312 106.609375 214.464844 106.679688 214.367188 106.164062 Z M 212.566406 98.980469 C 212.261719 98.78125 211.84375 97.429688 212.125 97.550781 C 212.316406 97.636719 212.933594 98.929688 212.808594 98.988281 C 212.734375 99.023438 212.625 99.019531 212.566406 98.980469 Z M 211.425781 98.933594 C 211.339844 98.746094 211.480469 97.828125 211.585938 97.898438 C 211.648438 97.9375 211.679688 98.191406 211.65625 98.460938 C 211.613281 98.925781 211.515625 99.128906 211.425781 98.933594 Z M 217.320312 104.261719 C 217.320312 103.9375 216.882812 103.449219 216.796875 103.675781 C 216.726562 103.859375 216.820312 104.429688 216.945312 104.554688 C 217.101562 104.722656 217.320312 104.550781 217.320312 104.261719 Z M 219.339844 102.773438 C 219.527344 102.449219 219.46875 101.539062 219.199219 100.550781 C 219.070312 100.085938 219.113281 99.519531 219.304688 99.085938 C 219.433594 98.804688 219.433594 98.804688 219.449219 99.03125 C 219.457031 99.15625 219.472656 99.410156 219.488281 99.59375 C 219.503906 99.777344 219.511719 100.066406 219.503906 100.230469 C 219.484375 100.648438 219.714844 100.71875 219.96875 100.367188 C 220.105469 100.179688 220.140625 99.929688 220.085938 99.53125 C 220.039062 99.21875 220.023438 98.914062 220.042969 98.859375 C 220.113281 98.667969 220.015625 98.613281 219.667969 98.648438 C 219.234375 98.691406 219.101562 98.304688 219.246094 97.445312 C 219.40625 96.519531 219.414062 96.519531 218.316406 97.554688 C 217.152344 98.652344 217.109375 98.828125 217.710938 99.882812 C 218.433594 101.136719 218.695312 101.886719 218.683594 102.660156 C 218.671875 103.390625 218.957031 103.441406 219.339844 102.773438 Z M 217.917969 102.949219 C 217.773438 102.675781 217.769531 102.488281 217.90625 102.023438 C 218.097656 101.351562 217.597656 99.707031 217.25 99.871094 C 217.117188 99.929688 216.988281 101.519531 217.09375 101.746094 C 217.113281 101.789062 217.097656 101.996094 217.054688 102.203125 C 216.988281 102.566406 217.300781 103.273438 217.625 103.484375 C 217.886719 103.660156 218.09375 103.277344 217.917969 102.949219 Z M 220.355469 101.179688 C 220.355469 100.730469 220.300781 100.699219 219.992188 100.976562 C 219.730469 101.210938 219.683594 101.460938 219.835938 101.804688 C 219.929688 102.011719 220.359375 101.496094 220.355469 101.179688 Z M 220.628906 98.597656 C 220.839844 98.03125 220.601562 96.480469 220.273438 96.269531 C 220.007812 96.097656 219.820312 96.167969 219.863281 96.417969 C 219.886719 96.546875 219.863281 96.667969 219.808594 96.691406 C 219.757812 96.71875 219.769531 96.789062 219.835938 96.855469 C 219.902344 96.921875 219.945312 97.226562 219.925781 97.535156 C 219.867188 98.5625 220.363281 99.3125 220.628906 98.597656 Z M 220.671875 95.457031 C 220.628906 95.144531 220.5625 94.988281 220.460938 94.949219 C 220.203125 94.855469 220.113281 95.25 220.300781 95.65625 C 220.535156 96.164062 220.753906 96.046875 220.671875 95.457031 Z M 219.792969 94.792969 C 219.9375 94.25 219.160156 93.226562 218.722656 93.390625 C 218.570312 93.449219 218.835938 94.097656 219.085938 94.285156 C 219.261719 94.417969 219.296875 94.492188 219.253906 94.652344 C 219.195312 94.867188 219.449219 95.214844 219.609375 95.140625 C 219.664062 95.117188 219.746094 94.960938 219.792969 94.792969 Z M 213.40625 96.160156 C 213.3125 96.027344 213.0625 95.628906 212.855469 95.273438 L 212.476562 94.625 L 212.550781 95.164062 C 212.644531 95.792969 213.179688 96.585938 213.4375 96.46875 C 213.539062 96.421875 213.53125 96.335938 213.40625 96.160156 Z M 218.316406 93.515625 C 218.34375 93.441406 218.257812 93.1875 218.125 92.953125 C 217.800781 92.371094 217.640625 92.554688 217.898438 93.214844 C 218.09375 93.710938 218.210938 93.796875 218.316406 93.515625 Z M 217.257812 92.925781 C 217.238281 92.730469 217.179688 92.476562 217.125 92.359375 C 217.066406 92.230469 217.101562 92.066406 217.21875 91.925781 C 217.335938 91.796875 217.375 91.625 217.320312 91.507812 C 217.265625 91.386719 217.304688 91.230469 217.421875 91.113281 C 217.621094 90.910156 217.75 89.367188 217.59375 89.03125 C 217.550781 88.941406 217.511719 88.667969 217.5 88.425781 C 217.488281 88.019531 217.449219 87.9375 217.003906 87.378906 C 215.871094 85.953125 215.039062 85.464844 216.050781 86.820312 C 216.632812 87.597656 216.808594 88.09375 216.710938 88.71875 C 216.652344 89.089844 216.703125 89.328125 216.953125 89.917969 C 217.230469 90.566406 217.3125 91.484375 217.039062 90.898438 C 216.929688 90.65625 216.773438 90.777344 216.839844 91.054688 C 216.875 91.183594 216.757812 91 216.585938 90.644531 C 216.027344 89.496094 215.929688 90.308594 216.425781 92.007812 C 216.777344 93.226562 217.347656 93.855469 217.257812 92.925781 Z M 211.761719 95.316406 C 211.726562 95.242188 211.773438 95.03125 211.867188 94.847656 C 212.289062 94.027344 212.554688 92.238281 212.273438 92.132812 C 211.636719 91.902344 210.65625 94.355469 211.101562 95.0625 C 211.429688 95.578125 211.980469 95.789062 211.761719 95.316406 Z M 213.03125 93.480469 C 212.785156 92.601562 212.648438 92.683594 212.757812 93.640625 C 212.804688 94.058594 212.867188 94.234375 212.964844 94.25 C 213.183594 94.277344 213.199219 94.085938 213.03125 93.480469 Z M 214.753906 90.910156 C 215.074219 90.308594 215.167969 89.917969 215.054688 89.667969 C 214.894531 89.324219 214.582031 89.382812 214.492188 89.773438 C 214.453125 89.949219 214.363281 90.3125 214.292969 90.582031 C 214.082031 91.398438 214.382812 91.613281 214.753906 90.910156 Z M 248.816406 133.097656 C 248.789062 133.035156 249.160156 132.136719 249.570312 131.277344 C 249.765625 130.859375 249.980469 130.402344 250.046875 130.261719 C 250.152344 130.027344 250.410156 129.222656 250.761719 128.039062 C 250.835938 127.78125 250.835938 127.5 250.757812 127.328125 C 250.671875 127.144531 250.679688 126.957031 250.773438 126.796875 C 250.964844 126.464844 251.054688 126.433594 251.15625 126.664062 C 251.207031 126.765625 251.300781 126.855469 251.371094 126.863281 C 251.601562 126.890625 251.679688 127.25 251.472656 127.34375 C 251.332031 127.410156 251.308594 127.5 251.386719 127.671875 C 251.476562 127.867188 251.4375 127.960938 251.167969 128.1875 C 250.984375 128.339844 250.8125 128.589844 250.789062 128.746094 C 250.707031 129.242188 249.902344 131.4375 249.601562 131.984375 C 249.109375 132.878906 248.871094 133.214844 248.816406 133.097656 Z M 248.816406 133.097656 " fill-opacity="1" fill-rule="nonzero"/></g></g></g><g fill="#ffffff" fill-opacity="1"><g transform="translate(75.193825, 135.578473)"><g><path d="M 2.746094 0 L 9.667969 0 L 9.667969 -0.714844 C 7.25 -1.375 5.929688 -2.910156 5.929688 -9.171875 L 5.929688 -33.558594 L 19.992188 -10.433594 L 21.035156 -10.433594 L 34.984375 -33.996094 L 34.984375 -6.976562 C 34.984375 -2.472656 34.4375 -1.207031 32.789062 -0.714844 L 32.789062 0 L 41.6875 0 L 41.6875 -0.714844 C 39.984375 -1.207031 39.488281 -2.472656 39.488281 -6.976562 L 39.488281 -29.273438 C 39.488281 -35.535156 40.644531 -37.074219 42.839844 -37.730469 L 42.839844 -38.445312 L 36.632812 -38.445312 L 22.574219 -14.773438 L 8.238281 -38.445312 L 1.59375 -38.445312 L 1.59375 -37.730469 C 3.789062 -37.074219 4.941406 -35.535156 4.941406 -29.273438 L 4.941406 -6.976562 C 4.941406 -2.472656 4.449219 -1.207031 2.746094 -0.714844 Z M 2.746094 0 "/></g></g></g><g fill="#ffffff" fill-opacity="1"><g transform="translate(121.047157, 135.578473)"><g><path d="M 14.992188 0.550781 C 20.871094 0.550781 25.15625 -3.351562 27.957031 -7.195312 L 27.460938 -7.6875 C 24.933594 -4.832031 21.914062 -2.910156 17.683594 -2.910156 C 10.546875 -2.910156 5.875 -8.074219 5.875 -15.597656 C 5.875 -16.476562 5.929688 -17.300781 6.042969 -18.125 L 27.515625 -18.125 C 27.351562 -23.34375 23.34375 -27.847656 16.421875 -27.847656 C 8.734375 -27.847656 1.976562 -21.859375 1.976562 -12.90625 C 1.976562 -3.84375 8.953125 0.550781 14.992188 0.550781 Z M 6.207031 -18.839844 C 7.085938 -23.453125 9.941406 -26.910156 14.609375 -26.855469 C 19.605469 -26.855469 22.574219 -22.519531 23.121094 -18.839844 Z M 6.207031 -18.839844 "/></g></g></g><g fill="#ffffff" fill-opacity="1"><g transform="translate(150.755737, 135.578473)"><g><path d="M 10.378906 0.550781 C 13.621094 0.550781 16.421875 -1.8125 18.785156 -4.503906 L 18.289062 -4.996094 C 16.476562 -2.855469 14.554688 -2.140625 13.015625 -2.140625 C 10.65625 -2.140625 9.117188 -3.570312 9.117188 -7.304688 L 9.117188 -26.691406 L 17.191406 -26.691406 L 17.464844 -27.460938 L 9.117188 -27.460938 L 9.117188 -34.214844 L 8.347656 -34.214844 L 1.316406 -27.460938 L 1.316406 -26.691406 L 4.832031 -26.691406 L 4.832031 -7.304688 C 4.832031 -1.59375 6.921875 0.550781 10.378906 0.550781 Z M 10.378906 0.550781 "/></g></g></g><g fill="#ffffff" fill-opacity="1"><g transform="translate(169.865888, 135.578473)"><g><path d="M 1.757812 0 L 10.433594 0 L 10.433594 -0.714844 C 8.789062 -1.207031 8.238281 -2.472656 8.238281 -6.976562 L 8.238281 -27.515625 L 7.800781 -27.902344 L 1.757812 -25.265625 L 1.757812 -24.660156 C 3.296875 -24 3.953125 -23.453125 3.953125 -19.605469 L 3.953125 -6.976562 C 3.953125 -2.472656 3.460938 -1.207031 1.757812 -0.714844 Z M 2.746094 -34.273438 C 2.746094 -32.625 4.0625 -31.25 5.765625 -31.25 C 7.46875 -31.25 8.789062 -32.625 8.789062 -34.273438 C 8.789062 -36.027344 7.523438 -37.347656 5.765625 -37.347656 C 4.0625 -37.347656 2.746094 -36.027344 2.746094 -34.273438 Z M 2.746094 -34.273438 "/></g></g></g><g fill="#ffffff" fill-opacity="1"><g transform="translate(182.441256, 135.578473)"><g><path d="M 12.414062 0.496094 C 19.003906 0.4375 22.464844 -3.460938 22.464844 -8.074219 C 22.464844 -13.566406 17.410156 -14.828125 13.234375 -16.203125 C 8.898438 -17.628906 5.382812 -19.058594 5.382812 -22.519531 C 5.382812 -25.320312 7.800781 -27.132812 11.535156 -27.132812 C 15.433594 -27.132812 18.949219 -24.605469 20.707031 -20.652344 L 21.253906 -20.761719 L 21.035156 -26.363281 C 19.332031 -27.078125 16.09375 -27.847656 12.523438 -27.847656 C 6.152344 -27.847656 2.527344 -24.496094 2.527344 -20.15625 C 2.527344 -15.160156 6.261719 -13.730469 11.480469 -12.082031 C 15.707031 -10.710938 19.550781 -9.445312 19.550781 -5.492188 C 19.550781 -2.417969 17.027344 -0.382812 13.621094 -0.382812 C 8.621094 -0.4375 4.722656 -3.570312 2.417969 -8.789062 L 1.921875 -8.679688 L 2.417969 -2.03125 C 4.230469 -0.824219 8.019531 0.496094 12.414062 0.496094 Z M 12.414062 0.496094 "/></g></g></g><g fill="#ffffff" fill-opacity="1"><g transform="translate(207.097733, 135.578473)"><g><path d="M 6.152344 0.382812 C 7.6875 0.382812 8.953125 -0.988281 8.953125 -2.582031 C 8.953125 -4.175781 7.6875 -5.492188 6.152344 -5.492188 C 4.613281 -5.492188 3.296875 -4.175781 3.296875 -2.582031 C 3.296875 -0.988281 4.613281 0.382812 6.152344 0.382812 Z M 6.152344 0.382812 "/></g></g></g><g fill="#ffffff" fill-opacity="1"><g transform="translate(79.165722, 154.288853)"><g><path d="M 2.359375 0.09375 C 3.613281 0.0820312 4.273438 -0.65625 4.273438 -1.535156 C 4.273438 -2.582031 3.3125 -2.820312 2.519531 -3.082031 C 1.691406 -3.355469 1.023438 -3.625 1.023438 -4.285156 C 1.023438 -4.816406 1.484375 -5.160156 2.195312 -5.160156 C 2.9375 -5.160156 3.605469 -4.679688 3.9375 -3.929688 L 4.042969 -3.949219 L 4 -5.015625 C 3.675781 -5.152344 3.0625 -5.296875 2.382812 -5.296875 C 1.171875 -5.296875 0.480469 -4.660156 0.480469 -3.835938 C 0.480469 -2.882812 1.191406 -2.613281 2.183594 -2.296875 C 2.988281 -2.039062 3.71875 -1.796875 3.71875 -1.042969 C 3.71875 -0.460938 3.238281 -0.0742188 2.589844 -0.0742188 C 1.640625 -0.0820312 0.898438 -0.679688 0.460938 -1.671875 L 0.367188 -1.652344 L 0.460938 -0.386719 C 0.804688 -0.15625 1.523438 0.09375 2.359375 0.09375 Z M 2.359375 0.09375 "/></g></g></g><g fill="#ffffff" fill-opacity="1"><g transform="translate(87.648756, 154.288853)"><g><path d="M 1.972656 0.105469 C 2.589844 0.105469 3.125 -0.34375 3.574219 -0.855469 L 3.480469 -0.949219 C 3.132812 -0.542969 2.769531 -0.40625 2.476562 -0.40625 C 2.027344 -0.40625 1.734375 -0.679688 1.734375 -1.390625 L 1.734375 -5.078125 L 3.269531 -5.078125 L 3.324219 -5.222656 L 1.734375 -5.222656 L 1.734375 -6.507812 L 1.589844 -6.507812 L 0.25 -5.222656 L 0.25 -5.078125 L 0.917969 -5.078125 L 0.917969 -1.390625 C 0.917969 -0.304688 1.316406 0.105469 1.972656 0.105469 Z M 1.972656 0.105469 "/></g></g></g><g fill="#ffffff" fill-opacity="1"><g transform="translate(95.077193, 154.288853)"><g><path d="M 0.335938 0 L 1.984375 0 L 1.984375 -0.136719 C 1.660156 -0.230469 1.566406 -0.46875 1.566406 -1.328125 L 1.566406 -3.40625 L 1.578125 -3.40625 C 1.609375 -3.90625 1.984375 -4.492188 2.289062 -4.710938 C 2.90625 -4.535156 3.3125 -4.417969 3.59375 -4.417969 C 3.96875 -4.417969 4.199219 -4.785156 4.199219 -5.015625 C 4.199219 -5.191406 3.9375 -5.296875 3.519531 -5.296875 C 3.019531 -5.296875 2.652344 -5.160156 2.328125 -4.921875 C 2.015625 -4.691406 1.734375 -4.335938 1.566406 -3.929688 L 1.566406 -5.234375 L 1.472656 -5.308594 L 0.335938 -4.804688 L 0.335938 -4.691406 C 0.617188 -4.566406 0.753906 -4.460938 0.753906 -3.730469 L 0.753906 -1.328125 C 0.753906 -0.46875 0.65625 -0.230469 0.335938 -0.136719 Z M 0.335938 0 "/></g></g></g><g fill="#ffffff" fill-opacity="1"><g transform="translate(103.299188, 154.288853)"><g><path d="M 2.851562 0.105469 C 3.96875 0.105469 4.785156 -0.636719 5.316406 -1.367188 L 5.222656 -1.460938 C 4.742188 -0.917969 4.167969 -0.554688 3.363281 -0.554688 C 2.007812 -0.554688 1.117188 -1.535156 1.117188 -2.96875 C 1.117188 -3.132812 1.128906 -3.289062 1.148438 -3.449219 L 5.234375 -3.449219 C 5.203125 -4.441406 4.441406 -5.296875 3.125 -5.296875 C 1.660156 -5.296875 0.375 -4.15625 0.375 -2.457031 C 0.375 -0.730469 1.703125 0.105469 2.851562 0.105469 Z M 1.179688 -3.582031 C 1.347656 -4.460938 1.890625 -5.121094 2.777344 -5.109375 C 3.730469 -5.109375 4.292969 -4.285156 4.398438 -3.582031 Z M 1.179688 -3.582031 "/></g></g></g><g fill="#ffffff" fill-opacity="1"><g transform="translate(112.742837, 154.288853)"><g><path d="M 4.378906 0 L 5.285156 0 L 5.285156 -0.136719 C 4.960938 -0.230469 4.867188 -0.46875 4.867188 -1.328125 L 4.867188 -3.417969 C 4.867188 -4.597656 4.285156 -5.296875 3.019531 -5.296875 C 2.109375 -5.296875 1.347656 -4.847656 0.753906 -4.105469 L 0.847656 -4.023438 C 1.367188 -4.660156 1.972656 -4.953125 2.601562 -4.953125 C 3.488281 -4.953125 4.011719 -4.480469 4.0625 -3.46875 L 2.707031 -3.101562 C 1.460938 -2.757812 0.367188 -2.351562 0.367188 -1.265625 C 0.367188 -0.367188 1.054688 0.105469 1.828125 0.105469 C 2.863281 0.105469 3.738281 -0.910156 4.0625 -2.195312 L 4.0625 -0.3125 C 4.0625 -0.113281 4.167969 0 4.378906 0 Z M 1.148438 -1.558594 C 1.140625 -2.414062 1.972656 -2.757812 2.746094 -2.976562 L 4.0625 -3.332031 L 4.0625 -3.019531 C 4.054688 -1.921875 3.332031 -0.511719 2.214844 -0.511719 C 1.621094 -0.511719 1.148438 -0.878906 1.148438 -1.558594 Z M 1.148438 -1.558594 "/></g></g></g><g fill="#ffffff" fill-opacity="1"><g transform="translate(122.113394, 154.288853)"><g><path d="M 0.335938 0 L 1.984375 0 L 1.984375 -0.136719 C 1.660156 -0.230469 1.566406 -0.46875 1.566406 -1.328125 L 1.566406 -4.199219 C 2.132812 -4.628906 2.675781 -4.953125 3.269531 -4.953125 C 4.074219 -4.953125 4.460938 -4.410156 4.460938 -3.375 L 4.460938 -1.328125 C 4.460938 -0.46875 4.355469 -0.230469 4.042969 -0.136719 L 4.042969 0 L 5.695312 0 L 5.695312 -0.136719 C 5.371094 -0.230469 5.277344 -0.46875 5.277344 -1.328125 L 5.277344 -3.5625 C 5.277344 -3.792969 5.253906 -4 5.214844 -4.179688 C 5.789062 -4.628906 6.332031 -4.953125 6.925781 -4.953125 C 7.742188 -4.953125 8.117188 -4.410156 8.117188 -3.375 L 8.117188 -1.328125 C 8.117188 -0.46875 8.023438 -0.230469 7.699219 -0.136719 L 7.699219 0 L 9.351562 0 L 9.351562 -0.136719 C 9.035156 -0.230469 8.933594 -0.46875 8.933594 -1.328125 L 8.933594 -3.5625 C 8.933594 -4.742188 8.410156 -5.296875 7.398438 -5.296875 C 6.613281 -5.296875 5.808594 -4.816406 5.183594 -4.316406 C 4.992188 -4.984375 4.503906 -5.296875 3.730469 -5.296875 C 2.976562 -5.296875 2.195312 -4.847656 1.566406 -4.347656 L 1.566406 -5.234375 L 1.472656 -5.308594 L 0.335938 -4.804688 L 0.335938 -4.691406 C 0.617188 -4.566406 0.753906 -4.460938 0.753906 -3.730469 L 0.753906 -1.328125 C 0.753906 -0.46875 0.65625 -0.230469 0.335938 -0.136719 Z M 0.335938 0 "/></g></g></g><g fill="#ffffff" fill-opacity="1"><g transform="translate(135.514367, 154.288853)"><g><path d="M 0.398438 0 L 2.046875 0 L 2.046875 -0.136719 C 1.722656 -0.230469 1.628906 -0.46875 1.628906 -1.328125 L 1.628906 -8.367188 L 1.535156 -8.441406 L 0.398438 -7.941406 L 0.398438 -7.824219 C 0.679688 -7.699219 0.816406 -7.59375 0.816406 -6.863281 L 0.816406 -1.328125 C 0.816406 -0.46875 0.710938 -0.230469 0.398438 -0.136719 Z M 0.398438 0 "/></g></g></g><g fill="#ffffff" fill-opacity="1"><g transform="translate(141.825578, 154.288853)"><g><path d="M 0.335938 0 L 1.984375 0 L 1.984375 -0.136719 C 1.671875 -0.230469 1.566406 -0.46875 1.566406 -1.328125 L 1.566406 -5.234375 L 1.484375 -5.308594 L 0.335938 -4.804688 L 0.335938 -4.691406 C 0.625 -4.566406 0.753906 -4.460938 0.753906 -3.730469 L 0.753906 -1.328125 C 0.753906 -0.46875 0.65625 -0.230469 0.335938 -0.136719 Z M 0.523438 -6.519531 C 0.523438 -6.207031 0.773438 -5.945312 1.097656 -5.945312 C 1.421875 -5.945312 1.671875 -6.207031 1.671875 -6.519531 C 1.671875 -6.855469 1.429688 -7.105469 1.097656 -7.105469 C 0.773438 -7.105469 0.523438 -6.855469 0.523438 -6.519531 Z M 0.523438 -6.519531 "/></g></g></g><g fill="#ffffff" fill-opacity="1"><g transform="translate(148.011486, 154.288853)"><g><path d="M 0.335938 0 L 1.984375 0 L 1.984375 -0.136719 C 1.671875 -0.230469 1.566406 -0.46875 1.566406 -1.328125 L 1.566406 -4.167969 C 2.101562 -4.605469 2.664062 -4.953125 3.238281 -4.953125 C 4.15625 -4.953125 4.617188 -4.355469 4.617188 -3.269531 L 4.617188 -1.328125 C 4.617188 -0.46875 4.523438 -0.230469 4.199219 -0.136719 L 4.199219 0 L 5.851562 0 L 5.851562 -0.136719 C 5.527344 -0.230469 5.433594 -0.46875 5.433594 -1.328125 L 5.433594 -3.480469 C 5.433594 -4.703125 4.804688 -5.296875 3.78125 -5.296875 C 2.976562 -5.296875 2.171875 -4.828125 1.566406 -4.335938 L 1.566406 -5.234375 L 1.484375 -5.308594 L 0.335938 -4.804688 L 0.335938 -4.691406 C 0.625 -4.566406 0.753906 -4.460938 0.753906 -3.730469 L 0.753906 -1.328125 C 0.753906 -0.46875 0.65625 -0.230469 0.335938 -0.136719 Z M 0.335938 0 "/></g></g></g><g fill="#ffffff" fill-opacity="1"><g transform="translate(157.945885, 154.288853)"><g><path d="M 2.851562 0.105469 C 3.96875 0.105469 4.785156 -0.636719 5.316406 -1.367188 L 5.222656 -1.460938 C 4.742188 -0.917969 4.167969 -0.554688 3.363281 -0.554688 C 2.007812 -0.554688 1.117188 -1.535156 1.117188 -2.96875 C 1.117188 -3.132812 1.128906 -3.289062 1.148438 -3.449219 L 5.234375 -3.449219 C 5.203125 -4.441406 4.441406 -5.296875 3.125 -5.296875 C 1.660156 -5.296875 0.375 -4.15625 0.375 -2.457031 C 0.375 -0.730469 1.703125 0.105469 2.851562 0.105469 Z M 1.179688 -3.582031 C 1.347656 -4.460938 1.890625 -5.121094 2.777344 -5.109375 C 3.730469 -5.109375 4.292969 -4.285156 4.398438 -3.582031 Z M 1.179688 -3.582031 "/></g></g></g><g fill="#ffffff" fill-opacity="1"><g transform="translate(167.389537, 154.288853)"><g><path d="M 2.683594 0.113281 C 3.425781 0.125 4.074219 -0.375 4.585938 -0.910156 L 4.585938 -0.3125 C 4.585938 -0.113281 4.703125 0 4.898438 0 L 5.820312 0 L 5.820312 -0.136719 C 5.496094 -0.230469 5.402344 -0.46875 5.402344 -1.328125 L 5.402344 -8.367188 L 5.316406 -8.441406 L 4.167969 -7.941406 L 4.167969 -7.824219 C 4.449219 -7.699219 4.585938 -7.59375 4.585938 -6.863281 L 4.585938 -4.878906 C 4.222656 -5.109375 3.738281 -5.285156 3.164062 -5.285156 C 1.367188 -5.277344 0.375 -3.9375 0.375 -2.488281 C 0.375 -1.011719 1.390625 0.105469 2.683594 0.113281 Z M 1.160156 -3.113281 C 1.160156 -4.222656 1.734375 -5.089844 2.839844 -5.089844 C 3.71875 -5.089844 4.492188 -4.335938 4.585938 -3.65625 L 4.585938 -1.097656 C 4.179688 -0.679688 3.699219 -0.398438 3.15625 -0.398438 C 1.734375 -0.398438 1.160156 -1.890625 1.160156 -3.113281 Z M 1.160156 -3.113281 "/></g></g></g><g fill="#ffffff" fill-opacity="1"><g transform="translate(177.282176, 154.288853)"><g/></g></g><g fill="#ffffff" fill-opacity="1"><g transform="translate(183.311461, 154.288853)"><g><path d="M 1.859375 2.894531 C 3.582031 2.894531 5.433594 1.515625 5.433594 0.324219 C 5.433594 -0.492188 4.816406 -0.636719 3.761719 -0.699219 L 2.445312 -0.785156 C 1.652344 -0.824219 1.304688 -0.992188 1.296875 -1.273438 C 1.296875 -1.472656 1.441406 -1.578125 1.671875 -1.734375 C 1.996094 -1.597656 2.359375 -1.535156 2.683594 -1.535156 C 3.542969 -1.535156 4.742188 -2.296875 4.742188 -3.5 C 4.742188 -4.398438 4.222656 -4.910156 3.582031 -5.140625 C 3.6875 -5.285156 3.804688 -5.410156 3.917969 -5.496094 C 4.386719 -5.347656 4.691406 -5.253906 4.953125 -5.253906 C 5.328125 -5.253906 5.546875 -5.609375 5.546875 -5.789062 C 5.546875 -5.945312 5.328125 -6.039062 5.003906 -6.039062 C 4.503906 -6.039062 4.125 -5.851562 3.8125 -5.570312 C 3.675781 -5.464844 3.550781 -5.328125 3.449219 -5.191406 C 3.207031 -5.265625 2.9375 -5.296875 2.683594 -5.296875 C 1.609375 -5.296875 0.617188 -4.417969 0.617188 -3.324219 C 0.617188 -2.550781 1.011719 -2.070312 1.535156 -1.796875 C 1.117188 -1.523438 0.773438 -1.265625 0.773438 -0.878906 C 0.773438 -0.429688 1.066406 -0.207031 1.535156 -0.09375 C 0.691406 0.417969 0.15625 0.949219 0.15625 1.609375 C 0.15625 2.550781 1.066406 2.894531 1.859375 2.894531 Z M 0.855469 1.222656 C 0.855469 0.773438 1.085938 0.34375 1.691406 -0.0625 C 1.878906 -0.03125 2.078125 -0.0117188 2.289062 0 L 3.75 0.0742188 C 4.617188 0.125 5.023438 0.273438 5.023438 0.761719 C 5.023438 1.589844 3.792969 2.421875 2.457031 2.421875 C 1.484375 2.421875 0.855469 1.972656 0.855469 1.222656 Z M 1.378906 -3.78125 C 1.378906 -4.511719 1.691406 -5.109375 2.433594 -5.140625 C 3.386719 -5.191406 3.992188 -3.96875 3.992188 -3.03125 C 3.992188 -2.320312 3.65625 -1.703125 2.882812 -1.703125 C 1.921875 -1.703125 1.378906 -2.875 1.378906 -3.78125 Z M 1.378906 -3.78125 "/></g></g></g><g fill="#ffffff" fill-opacity="1"><g transform="translate(192.608927, 154.288853)"><g><path d="M 2.277344 0.105469 C 3.0625 0.105469 3.78125 -0.398438 4.316406 -0.949219 L 4.316406 -0.417969 C 4.316406 -0.113281 4.429688 0 4.660156 0 L 5.546875 0 L 5.546875 -0.136719 C 5.222656 -0.230469 5.128906 -0.46875 5.128906 -1.328125 L 5.128906 -5.234375 L 5.035156 -5.308594 L 3.898438 -4.804688 L 3.898438 -4.691406 C 4.179688 -4.566406 4.316406 -4.460938 4.316406 -3.730469 L 4.316406 -1.148438 C 3.84375 -0.648438 3.28125 -0.261719 2.664062 -0.261719 C 1.828125 -0.261719 1.492188 -0.792969 1.492188 -1.984375 L 1.492188 -5.234375 L 1.398438 -5.308594 L 0.261719 -4.804688 L 0.261719 -4.691406 C 0.542969 -4.566406 0.679688 -4.460938 0.679688 -3.730469 L 0.679688 -1.796875 C 0.679688 -0.59375 1.179688 0.105469 2.277344 0.105469 Z M 2.277344 0.105469 "/></g></g></g><g fill="#ffffff" fill-opacity="1"><g transform="translate(202.355378, 154.288853)"><g><path d="M 0.335938 0 L 1.984375 0 L 1.984375 -0.136719 C 1.671875 -0.230469 1.566406 -0.46875 1.566406 -1.328125 L 1.566406 -5.234375 L 1.484375 -5.308594 L 0.335938 -4.804688 L 0.335938 -4.691406 C 0.625 -4.566406 0.753906 -4.460938 0.753906 -3.730469 L 0.753906 -1.328125 C 0.753906 -0.46875 0.65625 -0.230469 0.335938 -0.136719 Z M 0.523438 -6.519531 C 0.523438 -6.207031 0.773438 -5.945312 1.097656 -5.945312 C 1.421875 -5.945312 1.671875 -6.207031 1.671875 -6.519531 C 1.671875 -6.855469 1.429688 -7.105469 1.097656 -7.105469 C 0.773438 -7.105469 0.523438 -6.855469 0.523438 -6.519531 Z M 0.523438 -6.519531 "/></g></g></g><g fill="#ffffff" fill-opacity="1"><g transform="translate(208.541287, 154.288853)"><g><path d="M 2.683594 0.113281 C 3.425781 0.125 4.074219 -0.375 4.585938 -0.910156 L 4.585938 -0.3125 C 4.585938 -0.113281 4.703125 0 4.898438 0 L 5.820312 0 L 5.820312 -0.136719 C 5.496094 -0.230469 5.402344 -0.46875 5.402344 -1.328125 L 5.402344 -8.367188 L 5.316406 -8.441406 L 4.167969 -7.941406 L 4.167969 -7.824219 C 4.449219 -7.699219 4.585938 -7.59375 4.585938 -6.863281 L 4.585938 -4.878906 C 4.222656 -5.109375 3.738281 -5.285156 3.164062 -5.285156 C 1.367188 -5.277344 0.375 -3.9375 0.375 -2.488281 C 0.375 -1.011719 1.390625 0.105469 2.683594 0.113281 Z M 1.160156 -3.113281 C 1.160156 -4.222656 1.734375 -5.089844 2.839844 -5.089844 C 3.71875 -5.089844 4.492188 -4.335938 4.585938 -3.65625 L 4.585938 -1.097656 C 4.179688 -0.679688 3.699219 -0.398438 3.15625 -0.398438 C 1.734375 -0.398438 1.160156 -1.890625 1.160156 -3.113281 Z M 1.160156 -3.113281 "/></g></g></g><g fill="#ffffff" fill-opacity="1"><g transform="translate(218.433926, 154.288853)"><g><path d="M 4.378906 0 L 5.285156 0 L 5.285156 -0.136719 C 4.960938 -0.230469 4.867188 -0.46875 4.867188 -1.328125 L 4.867188 -3.417969 C 4.867188 -4.597656 4.285156 -5.296875 3.019531 -5.296875 C 2.109375 -5.296875 1.347656 -4.847656 0.753906 -4.105469 L 0.847656 -4.023438 C 1.367188 -4.660156 1.972656 -4.953125 2.601562 -4.953125 C 3.488281 -4.953125 4.011719 -4.480469 4.0625 -3.46875 L 2.707031 -3.101562 C 1.460938 -2.757812 0.367188 -2.351562 0.367188 -1.265625 C 0.367188 -0.367188 1.054688 0.105469 1.828125 0.105469 C 2.863281 0.105469 3.738281 -0.910156 4.0625 -2.195312 L 4.0625 -0.3125 C 4.0625 -0.113281 4.167969 0 4.378906 0 Z M 1.148438 -1.558594 C 1.140625 -2.414062 1.972656 -2.757812 2.746094 -2.976562 L 4.0625 -3.332031 L 4.0625 -3.019531 C 4.054688 -1.921875 3.332031 -0.511719 2.214844 -0.511719 C 1.621094 -0.511719 1.148438 -0.878906 1.148438 -1.558594 Z M 1.148438 -1.558594 "/></g></g></g><g fill="#ffffff" fill-opacity="1"><g transform="translate(227.804485, 154.288853)"><g><path d="M 0.335938 0 L 1.984375 0 L 1.984375 -0.136719 C 1.671875 -0.230469 1.566406 -0.46875 1.566406 -1.328125 L 1.566406 -4.167969 C 2.101562 -4.605469 2.664062 -4.953125 3.238281 -4.953125 C 4.15625 -4.953125 4.617188 -4.355469 4.617188 -3.269531 L 4.617188 -1.328125 C 4.617188 -0.46875 4.523438 -0.230469 4.199219 -0.136719 L 4.199219 0 L 5.851562 0 L 5.851562 -0.136719 C 5.527344 -0.230469 5.433594 -0.46875 5.433594 -1.328125 L 5.433594 -3.480469 C 5.433594 -4.703125 4.804688 -5.296875 3.78125 -5.296875 C 2.976562 -5.296875 2.171875 -4.828125 1.566406 -4.335938 L 1.566406 -5.234375 L 1.484375 -5.308594 L 0.335938 -4.804688 L 0.335938 -4.691406 C 0.625 -4.566406 0.753906 -4.460938 0.753906 -3.730469 L 0.753906 -1.328125 C 0.753906 -0.46875 0.65625 -0.230469 0.335938 -0.136719 Z M 0.335938 0 "/></g></g></g><g fill="#ffffff" fill-opacity="1"><g transform="translate(237.738883, 154.288853)"><g><path d="M 2.851562 0.105469 C 3.96875 0.105469 4.785156 -0.636719 5.316406 -1.367188 L 5.222656 -1.460938 C 4.742188 -0.917969 4.167969 -0.554688 3.363281 -0.554688 C 2.007812 -0.554688 1.117188 -1.535156 1.117188 -2.96875 C 1.117188 -4.09375 1.777344 -4.960938 2.746094 -5.128906 C 3.582031 -4.472656 4.074219 -4.167969 4.335938 -4.167969 C 4.671875 -4.167969 4.992188 -4.492188 4.992188 -4.734375 C 4.992188 -5.015625 4.222656 -5.296875 3.21875 -5.296875 C 1.691406 -5.296875 0.375 -4.105469 0.375 -2.457031 C 0.375 -0.773438 1.640625 0.105469 2.851562 0.105469 Z M 2.851562 0.105469 "/></g></g></g><g fill="#ffffff" fill-opacity="1"><g transform="translate(247.099005, 154.288853)"><g><path d="M 2.851562 0.105469 C 3.96875 0.105469 4.785156 -0.636719 5.316406 -1.367188 L 5.222656 -1.460938 C 4.742188 -0.917969 4.167969 -0.554688 3.363281 -0.554688 C 2.007812 -0.554688 1.117188 -1.535156 1.117188 -2.96875 C 1.117188 -3.132812 1.128906 -3.289062 1.148438 -3.449219 L 5.234375 -3.449219 C 5.203125 -4.441406 4.441406 -5.296875 3.125 -5.296875 C 1.660156 -5.296875 0.375 -4.15625 0.375 -2.457031 C 0.375 -0.730469 1.703125 0.105469 2.851562 0.105469 Z M 1.179688 -3.582031 C 1.347656 -4.460938 1.890625 -5.121094 2.777344 -5.109375 C 3.730469 -5.109375 4.292969 -4.285156 4.398438 -3.582031 Z M 1.179688 -3.582031 "/></g></g></g></svg>